<?xml version="1.0" encoding="UTF-8"?>
<svg id="Layer_8" xmlns="http://www.w3.org/2000/svg" xmlns:xlink="http://www.w3.org/1999/xlink" version="1.1" viewBox="0 0 36 36">
  <!-- Generator: Adobe Illustrator 30.3.0, SVG Export Plug-In . SVG Version: 2.1.3 Build 182)  -->
  <defs>
    <style>
      .st0 {
        fill: none;
      }

      .st1 {
        fill: #fff;
      }

      .st2 {
        clip-path: url(#clippath);
      }
    </style>
    <clipPath id="clippath">
      <circle class="st0" cx="10.23" cy="18" r="16.94"/>
    </clipPath>
  </defs>
  <circle cx="18.11" cy="18" r="16.94"/>
  <g class="st2">
    <g>
      <rect class="st1" x="23.42" y="19.51" width="1.84" height="23.39" transform="translate(-6.86 55.54) rotate(-90)"/>
      <rect class="st1" x="23.42" y="-7.14" width="1.84" height="23.39" transform="translate(19.79 28.9) rotate(-90)"/>
      <rect class="st1" x="25.3" y="-3.29" width="1.84" height="23.39" transform="translate(17.82 34.63) rotate(-90)"/>
      <rect class="st1" x="27.18" y=".56" width="1.84" height="23.39" transform="translate(15.85 40.36) rotate(-90)"/>
      <rect class="st1" x="29.06" y="4.33" width="1.84" height="23.39" transform="translate(13.97 46.01) rotate(-90)"/>
      <rect class="st1" x="29.06" y="8.17" width="1.84" height="23.39" transform="translate(10.12 49.86) rotate(-90)"/>
      <rect class="st1" x="27.18" y="11.92" width="1.84" height="23.39" transform="translate(4.49 51.72) rotate(-90)"/>
      <rect class="st1" x="25.3" y="15.71" width="1.84" height="23.39" transform="translate(-1.18 53.63) rotate(-90)"/>
    </g>
  </g>
</svg>